<svg width="608" height="74" viewBox="0 0 608 74" fill="none" xmlns="http://www.w3.org/2000/svg">
<path d="M53.7335 6.584L52.7297 8.31388L52.7423 8.32117L52.755 8.32829L53.7335 6.584ZM66.1175 18.968L64.3771 19.9535L64.3823 19.9625L66.1175 18.968ZM66.0215 54.776L64.2902 53.7747L64.2856 53.7826L64.2812 53.7905L66.0215 54.776ZM53.6375 67.256L54.6252 68.9951L54.6321 68.9912L53.6375 67.256ZM18.9815 67.256L17.9777 68.9859L17.9903 68.9932L18.003 69.0003L18.9815 67.256ZM6.5975 54.776L4.85716 55.7615L4.86163 55.7694L4.86617 55.7772L6.5975 54.776ZM6.5975 18.968L4.86616 17.9667L4.86232 17.9734L6.5975 18.968ZM18.9815 6.584L19.9692 8.32314L19.9761 8.31918L18.9815 6.584ZM23.4935 22.616L22.0136 21.2707L22.0124 21.272L23.4935 22.616ZM23.4935 51.032L22.0002 52.3624L22.0069 52.3699L22.0136 52.3773L23.4935 51.032ZM49.1255 51.032L47.6456 49.6867L47.6456 49.6867L49.1255 51.032ZM49.1255 22.616L47.6322 23.9464L47.6389 23.9539L47.6456 23.9613L49.1255 22.616ZM36.3575 4.07199C42.4297 4.07199 47.8714 5.49484 52.7297 8.31388L54.7373 4.85412C49.2276 1.65715 43.0853 0.0719948 36.3575 0.0719948V4.07199ZM52.755 8.32829C57.6797 11.0909 61.5463 14.9544 64.3772 19.9535L67.8578 17.9825C64.6727 12.3576 60.2833 7.96507 54.712 4.83971L52.755 8.32829ZM64.3823 19.9625C67.1998 24.8781 68.6295 30.481 68.6295 36.824H72.6295C72.6295 29.855 71.0512 23.5539 67.8527 17.9734L64.3823 19.9625ZM68.6295 36.824C68.6295 43.1591 67.1714 48.7926 64.2902 53.7747L67.7528 55.7772C71.0156 50.1354 72.6295 43.8009 72.6295 36.824H68.6295ZM64.2812 53.7905C61.4483 58.7932 57.5766 62.693 52.6429 65.5208L54.6321 68.9912C60.1944 65.803 64.5787 61.3828 67.7618 55.7615L64.2812 53.7905ZM52.6499 65.5169C47.7859 68.2791 42.3698 69.672 36.3575 69.672V73.672C43.0172 73.672 49.1211 72.1209 54.6252 68.9951L52.6499 65.5169ZM36.3575 69.672C30.3454 69.672 24.8931 68.2791 19.96 65.5117L18.003 69.0003C23.5659 72.1209 29.6976 73.672 36.3575 73.672V69.672ZM19.9853 65.5261C15.1107 62.6977 11.2304 58.7921 8.32883 53.7747L4.86617 55.7772C8.10859 61.3839 12.4843 65.7983 17.9777 68.9859L19.9853 65.5261ZM8.33784 53.7905C5.51518 48.8058 4.0855 43.1667 4.0855 36.824H0.0855002C0.0855002 43.7933 1.66382 50.1222 4.85716 55.7615L8.33784 53.7905ZM4.0855 36.824C4.0855 30.481 5.51525 24.8781 8.33268 19.9626L4.86232 17.9734C1.66375 23.5539 0.0855002 29.855 0.0855002 36.824H4.0855ZM8.32883 19.9692C11.2284 14.9555 15.1035 11.0863 19.9692 8.32312L17.9939 4.84488C12.4915 7.9697 8.11064 12.3565 4.86617 17.9667L8.32883 19.9692ZM19.9761 8.31918C24.9067 5.49307 30.3532 4.07199 36.3575 4.07199V0.0719948C29.6898 0.0719948 23.5523 1.65892 17.9869 4.84882L19.9761 8.31918ZM36.3575 15.336C30.4992 15.336 25.644 17.2772 22.0136 21.2707L24.9734 23.9613C27.743 20.9148 31.4638 19.336 36.3575 19.336V15.336ZM22.0124 21.272C18.4548 25.1926 16.7895 30.4591 16.7895 36.824H20.7895C20.7895 31.1569 22.2602 26.9514 24.9746 23.96L22.0124 21.272ZM16.7895 36.824C16.7895 43.1333 18.4589 48.3875 22.0002 52.3624L24.9868 49.7016C22.2561 46.6365 20.7895 42.4187 20.7895 36.824H16.7895ZM22.0136 52.3773C25.644 56.3708 30.4992 58.312 36.3575 58.312V54.312C31.4638 54.312 27.743 52.7332 24.9734 49.6867L22.0136 52.3773ZM36.3575 58.312C42.16 58.312 46.9799 56.3654 50.6054 52.3773L47.6456 49.6867C44.8711 52.7386 41.179 54.312 36.3575 54.312V58.312ZM50.6054 52.3773C54.2183 48.4031 55.9255 43.1435 55.9255 36.824H51.9255C51.9255 42.4085 50.4327 46.6209 47.6456 49.6867L50.6054 52.3773ZM55.9255 36.824C55.9255 30.5045 54.2183 25.2449 50.6054 21.2707L47.6456 23.9613C50.4327 27.0271 51.9255 31.2395 51.9255 36.824H55.9255ZM50.6188 21.2856C47.0481 17.2776 42.2153 15.336 36.3575 15.336V19.336C41.2517 19.336 44.9309 20.9144 47.6322 23.9464L50.6188 21.2856ZM124.108 3.128H126.108V1.128H124.108V3.128ZM124.108 16.184V18.184H126.108V16.184H124.108ZM96.2675 16.184V14.184H94.2675V16.184H96.2675ZM96.2675 31.064H94.2675V33.064H96.2675V31.064ZM117.772 31.064H119.772V29.064H117.772V31.064ZM117.772 43.544V45.544H119.772V43.544H117.772ZM96.2675 43.544V41.544H94.2675V43.544H96.2675ZM96.2675 71V73H98.2675V71H96.2675ZM79.8515 71H77.8515V73H79.8515V71ZM79.8515 3.128V1.128H77.8515V3.128H79.8515ZM122.108 3.128V16.184H126.108V3.128H122.108ZM124.108 14.184H96.2675V18.184H124.108V14.184ZM94.2675 16.184V31.064H98.2675V16.184H94.2675ZM96.2675 33.064H117.772V29.064H96.2675V33.064ZM115.772 31.064V43.544H119.772V31.064H115.772ZM117.772 41.544H96.2675V45.544H117.772V41.544ZM94.2675 43.544V71H98.2675V43.544H94.2675ZM96.2675 69H79.8515V73H96.2675V69ZM81.8515 71V3.128H77.8515V71H81.8515ZM79.8515 5.128H124.108V1.128H79.8515V5.128ZM200.526 3.128H202.526V1.128H200.526V3.128ZM200.526 16.184V18.184H202.526V16.184H200.526ZM182.094 16.184V14.184H180.094V16.184H182.094ZM182.094 71V73H184.094V71H182.094ZM165.582 71H163.582V73H165.582V71ZM165.582 16.184H167.582V14.184H165.582V16.184ZM147.342 16.184H145.342V18.184H147.342V16.184ZM147.342 3.128V1.128H145.342V3.128H147.342ZM198.526 3.128V16.184H202.526V3.128H198.526ZM200.526 14.184H182.094V18.184H200.526V14.184ZM180.094 16.184V71H184.094V16.184H180.094ZM182.094 69H165.582V73H182.094V69ZM167.582 71V16.184H163.582V71H167.582ZM165.582 14.184H147.342V18.184H165.582V14.184ZM149.342 16.184V3.128H145.342V16.184H149.342ZM147.342 5.128H200.526V1.128H147.342V5.128ZM266.101 3.128H268.101V1.128H266.101V3.128ZM266.101 71V73H268.101V71H266.101ZM249.589 71H247.589V73H249.589V71ZM249.589 42.68H251.589V40.68H249.589V42.68ZM223.861 42.68V40.68H221.861V42.68H223.861ZM223.861 71V73H225.861V71H223.861ZM207.445 71H205.445V73H207.445V71ZM207.445 3.128V1.128H205.445V3.128H207.445ZM223.861 3.128H225.861V1.128H223.861V3.128ZM223.861 29.432H221.861V31.432H223.861V29.432ZM249.589 29.432V31.432H251.589V29.432H249.589ZM249.589 3.128V1.128H247.589V3.128H249.589ZM264.101 3.128V71H268.101V3.128H264.101ZM266.101 69H249.589V73H266.101V69ZM251.589 71V42.68H247.589V71H251.589ZM249.589 40.68H223.861V44.68H249.589V40.68ZM221.861 42.68V71H225.861V42.68H221.861ZM223.861 69H207.445V73H223.861V69ZM209.445 71V3.128H205.445V71H209.445ZM207.445 5.128H223.861V1.128H207.445V5.128ZM221.861 3.128V29.432H225.861V3.128H221.861ZM223.861 31.432H249.589V27.432H223.861V31.432ZM251.589 29.432V3.128H247.589V29.432H251.589ZM249.589 5.128H266.101V1.128H249.589V5.128ZM293.799 16.184V14.184H291.799V16.184H293.799ZM293.799 30.392H291.799V32.392H293.799V30.392ZM316.743 30.392H318.743V28.392H316.743V30.392ZM316.743 42.776V44.776H318.743V42.776H316.743ZM293.799 42.776V40.776H291.799V42.776H293.799ZM293.799 57.848H291.799V59.848H293.799V57.848ZM319.623 57.848H321.623V55.848H319.623V57.848ZM319.623 71V73H321.623V71H319.623ZM277.383 71H275.383V73H277.383V71ZM277.383 3.128V1.128H275.383V3.128H277.383ZM319.623 3.128H321.623V1.128H319.623V3.128ZM319.623 16.184V18.184H321.623V16.184H319.623ZM291.799 16.184V30.392H295.799V16.184H291.799ZM293.799 32.392H316.743V28.392H293.799V32.392ZM314.743 30.392V42.776H318.743V30.392H314.743ZM316.743 40.776H293.799V44.776H316.743V40.776ZM291.799 42.776V57.848H295.799V42.776H291.799ZM293.799 59.848H319.623V55.848H293.799V59.848ZM317.623 57.848V71H321.623V57.848H317.623ZM319.623 69H277.383V73H319.623V69ZM279.383 71V3.128H275.383V71H279.383ZM277.383 5.128H319.623V1.128H277.383V5.128ZM317.623 3.128V16.184H321.623V3.128H317.623ZM319.623 14.184H293.799V18.184H319.623V14.184ZM394.148 61.784L392.446 60.7338L392.438 60.747L392.43 60.7604L394.148 61.784ZM386.084 68.984L385.19 67.1951L385.183 67.1984L385.177 67.2017L386.084 68.984ZM354.404 66.104L355.607 64.5065L355.607 64.5065L354.404 66.104ZM346.34 50.552V48.552H344.201L344.345 50.6863L346.34 50.552ZM363.812 50.552L365.802 50.353L365.622 48.552H363.812V50.552ZM366.5 56.6L365.116 58.044L365.131 58.0581L365.146 58.0719L366.5 56.6ZM377.54 57.08L376.165 55.6281L376.165 55.6281L377.54 57.08ZM377.636 48.152L376.182 49.5252L376.202 49.546L376.222 49.5662L377.636 48.152ZM373.508 45.368L372.67 47.1839L372.699 47.1974L372.729 47.2099L373.508 45.368ZM366.596 42.68L367.253 40.791L367.245 40.7884L366.596 42.68ZM356.036 38.456L355.108 40.2277L355.133 40.2408L355.158 40.2531L356.036 38.456ZM349.028 32.312L347.388 33.4564L347.403 33.4782L347.419 33.4997L349.028 32.312ZM349.22 11.192L347.578 10.0499L347.578 10.0499L349.22 11.192ZM357.668 4.472L358.456 6.31029L358.464 6.30696L358.471 6.30357L357.668 4.472ZM388.1 7.44799L386.84 9.00095L386.851 9.00973L388.1 7.44799ZM395.684 22.232V24.232H397.876L397.676 22.0491L395.684 22.232ZM377.924 22.232L375.944 22.5148L376.189 24.232H377.924V22.232ZM375.428 16.952L373.98 18.3313L374.013 18.3666L374.049 18.4003L375.428 16.952ZM365.444 16.472L364.156 14.9422L364.135 14.9594L364.115 14.9772L365.444 16.472ZM365.252 25.112L363.757 26.4407L363.796 26.4847L363.838 26.5262L365.252 25.112ZM376.196 30.488L375.516 32.3688L375.535 32.3759L375.555 32.3826L376.196 30.488ZM386.852 34.904L385.909 36.6676L385.925 36.6762L385.941 36.6845L386.852 34.904ZM393.956 41.144L395.578 39.9744L395.578 39.9744L393.956 41.144ZM394.932 51.896C394.932 55.1146 394.104 58.0461 392.446 60.7338L395.85 62.8342C397.904 59.5059 398.932 55.8454 398.932 51.896H394.932ZM392.43 60.7604C390.861 63.3943 388.482 65.5489 385.19 67.1951L386.978 70.7729C390.854 68.8351 393.851 66.1897 395.866 62.8076L392.43 60.7604ZM385.177 67.2017C382.005 68.8162 378.046 69.672 373.22 69.672V73.672C378.506 73.672 383.123 72.7358 386.991 70.7663L385.177 67.2017ZM373.22 69.672C365.934 69.672 360.114 67.9011 355.607 64.5065L353.201 67.7015C358.55 71.7309 365.274 73.672 373.22 73.672V69.672ZM355.607 64.5065C351.184 61.1749 348.748 56.5473 348.335 50.4177L344.345 50.6863C344.828 57.8687 347.768 63.6091 353.201 67.7015L355.607 64.5065ZM346.34 52.552H363.812V48.552H346.34V52.552ZM361.822 50.751C362.115 53.6815 363.168 56.177 365.116 58.044L367.884 55.156C366.76 54.079 366.021 52.5425 365.802 50.353L361.822 50.751ZM365.146 58.0719C367.16 59.9246 369.679 60.808 372.548 60.808V56.808C370.553 56.808 369.04 56.2194 367.854 55.1281L365.146 58.0719ZM372.548 60.808C375.032 60.808 377.238 60.1213 378.915 58.5319L376.165 55.6281C375.41 56.3427 374.288 56.808 372.548 56.808V60.808ZM378.915 58.5319C380.59 56.9457 381.364 54.8532 381.364 52.472H377.364C377.364 53.9308 376.922 54.9103 376.165 55.6281L378.915 58.5319ZM381.364 52.472C381.364 50.2493 380.602 48.2894 379.05 46.7378L376.222 49.5662C376.974 50.3186 377.364 51.2387 377.364 52.472H381.364ZM379.09 46.7788C377.787 45.3992 376.171 44.3228 374.287 43.5261L372.729 47.2099C374.173 47.8212 375.309 48.6008 376.182 49.5252L379.09 46.7788ZM374.346 43.5521C372.596 42.7444 370.222 41.8238 367.253 40.791L365.939 44.569C368.858 45.5842 371.092 46.4556 372.67 47.1839L374.346 43.5521ZM367.245 40.7884C363.002 39.3317 359.566 37.954 356.914 36.6589L355.158 40.2531C358.01 41.646 361.614 43.0843 365.947 44.5716L367.245 40.7884ZM356.964 36.6843C354.571 35.4306 352.46 33.5935 350.637 31.1243L347.419 33.4997C349.564 36.4065 352.125 38.6654 355.108 40.2277L356.964 36.6843ZM350.668 31.1676C349.043 28.8384 348.148 25.7196 348.148 21.656H344.148C344.148 26.2964 345.173 30.2816 347.388 33.4564L350.668 31.1676ZM348.148 21.656C348.148 17.9796 349.075 14.9021 350.862 12.3341L347.578 10.0499C345.269 13.3699 344.148 17.2684 344.148 21.656H348.148ZM350.862 12.3341C352.677 9.72427 355.185 7.71213 358.456 6.31029L356.88 2.63371C352.983 4.30387 349.859 6.77173 347.578 10.0499L350.862 12.3341ZM358.471 6.30357C361.826 4.83217 365.705 4.07199 370.148 4.07199V0.0719948C365.247 0.0719948 360.806 0.91182 356.865 2.64042L358.471 6.30357ZM370.148 4.07199C377.392 4.07199 382.882 5.78885 386.84 9.00091L389.36 5.89508C384.486 1.93914 378.008 0.0719948 370.148 0.0719948V4.07199ZM386.851 9.00973C390.862 12.219 393.161 16.6257 393.692 22.4149L397.676 22.0491C397.055 15.2943 394.298 9.84495 389.349 5.88626L386.851 9.00973ZM395.684 20.232H377.924V24.232H395.684V20.232ZM379.904 21.9492C379.535 19.3646 378.543 17.157 376.807 15.5037L374.049 18.4003C375.001 19.3069 375.673 20.6194 375.944 22.5148L379.904 21.9492ZM376.876 15.5727C375.142 13.7519 372.813 12.936 370.148 12.936V16.936C371.963 16.936 373.154 17.4641 373.98 18.3313L376.876 15.5727ZM370.148 12.936C367.859 12.936 365.803 13.5547 364.156 14.9422L366.732 18.0018C367.517 17.3413 368.597 16.936 370.148 16.936V12.936ZM364.115 14.9772C362.421 16.4832 361.716 18.6036 361.716 20.984H365.716C365.716 19.3964 366.163 18.5088 366.773 17.9668L364.115 14.9772ZM361.716 20.984C361.716 23.0534 362.394 24.9076 363.757 26.4407L366.747 23.7833C366.062 23.0124 365.716 22.1146 365.716 20.984H361.716ZM363.838 26.5262C365.123 27.8117 366.682 28.8402 368.479 29.6306L370.089 25.9694C368.686 25.3518 367.557 24.5882 366.666 23.6978L363.838 26.5262ZM368.479 29.6306C370.14 30.3618 372.494 31.2758 375.516 32.3688L376.876 28.6072C373.882 27.5242 371.628 26.6462 370.089 25.9694L368.479 29.6306ZM375.555 32.3826C379.847 33.8341 383.287 35.2655 385.909 36.6676L387.795 33.1404C384.913 31.5985 381.249 30.0859 376.837 28.5934L375.555 32.3826ZM385.941 36.6845C388.384 37.9344 390.517 39.7932 392.334 42.3136L395.578 39.9744C393.427 36.9908 390.824 34.6896 387.763 33.1235L385.941 36.6845ZM392.334 42.3136C394.007 44.6352 394.932 47.7736 394.932 51.896H398.932C398.932 47.1864 397.873 43.1568 395.578 39.9744L392.334 42.3136ZM421.944 3.128H423.944V1.128H421.944V3.128ZM424.92 52.568L423.387 53.8524L423.397 53.8645L423.407 53.8763L424.92 52.568ZM442.488 52.568L440.975 51.2597L440.965 51.2715L440.955 51.2836L442.488 52.568ZM445.56 3.128V1.128H443.56V3.128H445.56ZM461.976 3.128H463.976V1.128H461.976V3.128ZM458.232 58.52L459.967 59.515L459.973 59.5041L458.232 58.52ZM447.96 68.408L448.865 70.1915L448.875 70.1863L447.96 68.408ZM418.968 68.408L418.041 70.1802L418.041 70.1802L418.968 68.408ZM409.176 58.52L410.938 57.5748L410.938 57.5748L409.176 58.52ZM405.624 3.128V1.128H403.624V3.128H405.624ZM419.944 3.128V42.296H423.944V3.128H419.944ZM419.944 42.296C419.944 47.0392 420.991 50.9928 423.387 53.8524L426.453 51.2836C424.881 49.4072 423.944 46.5128 423.944 42.296H419.944ZM423.407 53.8763C425.92 56.7814 429.474 58.12 433.752 58.12V54.12C430.349 54.12 428.016 53.0906 426.432 51.2597L423.407 53.8763ZM433.752 58.12C438.027 58.12 441.567 56.7817 444.021 53.8524L440.955 51.2836C439.441 53.0902 437.157 54.12 433.752 54.12V58.12ZM444 53.8763C446.475 51.0156 447.56 47.0524 447.56 42.296H443.56C443.56 46.4996 442.597 49.3844 440.975 51.2597L444 53.8763ZM447.56 42.296V3.128H443.56V42.296H447.56ZM445.56 5.128H461.976V1.128H445.56V5.128ZM459.976 3.128V42.296H463.976V3.128H459.976ZM459.976 42.296C459.976 48.4399 458.778 53.4889 456.491 57.5359L459.973 59.5041C462.677 54.7191 463.976 48.9521 463.976 42.296H459.976ZM456.497 57.525C454.188 61.5512 451.044 64.5709 447.044 66.6297L448.875 70.1863C453.579 67.7651 457.284 64.1928 459.967 59.515L456.497 57.525ZM447.055 66.6245C443.082 68.6405 438.535 69.672 433.368 69.672V73.672C439.081 73.672 444.261 72.5275 448.865 70.1915L447.055 66.6245ZM433.368 69.672C428.199 69.672 423.726 68.64 419.895 66.6358L418.041 70.1802C422.529 72.528 427.656 73.672 433.368 73.672V69.672ZM419.895 66.6358C416.114 64.6583 413.13 61.6627 410.938 57.5748L407.413 59.4652C409.957 64.2093 413.501 67.8057 418.041 70.1802L419.895 66.6358ZM410.938 57.5748C408.763 53.5191 407.624 48.4553 407.624 42.296H403.624C403.624 48.9366 404.852 54.6889 407.413 59.4652L410.938 57.5748ZM407.624 42.296V3.128H403.624V42.296H407.624ZM405.624 5.128H421.944V1.128H405.624V5.128ZM489.361 3.128H491.361V1.128H489.361V3.128ZM489.361 71V73H491.361V71H489.361ZM472.945 71H470.945V73H472.945V71ZM472.945 3.128V1.128H470.945V3.128H472.945ZM487.361 3.128V71H491.361V3.128H487.361ZM489.361 69H472.945V73H489.361V69ZM474.945 71V3.128H470.945V71H474.945ZM472.945 5.128H489.361V1.128H472.945V5.128ZM549.463 3.128H551.463V1.128H549.463V3.128ZM549.463 16.184V18.184H551.463V16.184H549.463ZM531.031 16.184V14.184H529.031V16.184H531.031ZM531.031 71V73H533.031V71H531.031ZM514.519 71H512.519V73H514.519V71ZM514.519 16.184H516.519V14.184H514.519V16.184ZM496.279 16.184H494.279V18.184H496.279V16.184ZM496.279 3.128V1.128H494.279V3.128H496.279ZM547.463 3.128V16.184H551.463V3.128H547.463ZM549.463 14.184H531.031V18.184H549.463V14.184ZM529.031 16.184V71H533.031V16.184H529.031ZM531.031 69H514.519V73H531.031V69ZM516.519 71V16.184H512.519V71H516.519ZM514.519 14.184H496.279V18.184H514.519V14.184ZM498.279 16.184V3.128H494.279V16.184H498.279ZM496.279 5.128H549.463V1.128H496.279V5.128ZM602.367 61.784L600.665 60.7338L600.657 60.747L600.649 60.7604L602.367 61.784ZM594.303 68.984L593.408 67.1951L593.402 67.1984L593.395 67.2017L594.303 68.984ZM562.623 66.104L563.826 64.5065L563.826 64.5065L562.623 66.104ZM554.559 50.552V48.552H552.42L552.563 50.6863L554.559 50.552ZM572.031 50.552L574.021 50.353L573.841 48.552H572.031V50.552ZM574.719 56.6L573.335 58.044L573.35 58.0581L573.365 58.0719L574.719 56.6ZM585.759 57.08L584.383 55.6281L584.383 55.6281L585.759 57.08ZM585.855 48.152L584.401 49.5252L584.42 49.546L584.441 49.5662L585.855 48.152ZM581.727 45.368L580.889 47.1839L580.918 47.1974L580.947 47.2099L581.727 45.368ZM574.815 42.68L575.472 40.791L575.464 40.7884L574.815 42.68ZM564.255 38.456L563.327 40.2277L563.352 40.2408L563.377 40.2531L564.255 38.456ZM557.247 32.312L555.606 33.4564L555.622 33.4782L555.638 33.4997L557.247 32.312ZM557.439 11.192L555.797 10.0499L555.797 10.0499L557.439 11.192ZM565.887 4.472L566.675 6.31029L566.682 6.30696L566.69 6.30357L565.887 4.472ZM596.319 7.44799L595.058 9.00095L595.069 9.00973L596.319 7.44799ZM603.903 22.232V24.232H606.095L605.894 22.0491L603.903 22.232ZM586.143 22.232L584.163 22.5148L584.408 24.232H586.143V22.232ZM583.647 16.952L582.198 18.3313L582.232 18.3666L582.267 18.4003L583.647 16.952ZM573.663 16.472L572.374 14.9422L572.354 14.9594L572.334 14.9772L573.663 16.472ZM573.471 25.112L571.976 26.4407L572.015 26.4847L572.057 26.5262L573.471 25.112ZM584.415 30.488L583.734 32.3688L583.754 32.3759L583.774 32.3826L584.415 30.488ZM595.071 34.904L594.127 36.6676L594.144 36.6762L594.16 36.6845L595.071 34.904ZM602.175 41.144L603.797 39.9744L603.797 39.9744L602.175 41.144ZM603.151 51.896C603.151 55.1146 602.323 58.0461 600.665 60.7338L604.069 62.8342C606.122 59.5059 607.151 55.8454 607.151 51.896H603.151ZM600.649 60.7604C599.079 63.3943 596.701 65.5489 593.408 67.1951L595.197 70.7729C599.073 68.8351 602.07 66.1897 604.085 62.8076L600.649 60.7604ZM593.395 67.2017C590.224 68.8162 586.265 69.672 581.439 69.672V73.672C586.724 73.672 591.342 72.7358 595.21 70.7663L593.395 67.2017ZM581.439 69.672C574.153 69.672 568.333 67.9011 563.826 64.5065L561.419 67.7015C566.769 71.7309 573.492 73.672 581.439 73.672V69.672ZM563.826 64.5065C559.403 61.1749 556.967 56.5473 556.554 50.4177L552.563 50.6863C553.047 57.8687 555.986 63.6091 561.419 67.7015L563.826 64.5065ZM554.559 52.552H572.031V48.552H554.559V52.552ZM570.041 50.751C570.334 53.6815 571.387 56.177 573.335 58.044L576.103 55.156C574.979 54.079 574.24 52.5425 574.021 50.353L570.041 50.751ZM573.365 58.0719C575.379 59.9246 577.897 60.808 580.767 60.808V56.808C578.772 56.808 577.259 56.2194 576.073 55.1281L573.365 58.0719ZM580.767 60.808C583.251 60.808 585.457 60.1213 587.134 58.5319L584.383 55.6281C583.629 56.3427 582.506 56.808 580.767 56.808V60.808ZM587.134 58.5319C588.809 56.9457 589.583 54.8532 589.583 52.472H585.583C585.583 53.9308 585.141 54.9103 584.383 55.6281L587.134 58.5319ZM589.583 52.472C589.583 50.2493 588.821 48.2894 587.269 46.7378L584.441 49.5662C585.193 50.3186 585.583 51.2387 585.583 52.472H589.583ZM587.309 46.7788C586.006 45.3992 584.389 44.3228 582.506 43.5261L580.947 47.2099C582.392 47.8212 583.528 48.6008 584.401 49.5252L587.309 46.7788ZM582.565 43.5521C580.815 42.7444 578.441 41.8238 575.472 40.791L574.158 44.569C577.076 45.5842 579.311 46.4556 580.889 47.1839L582.565 43.5521ZM575.464 40.7884C571.221 39.3317 567.784 37.954 565.132 36.6589L563.377 40.2531C566.229 41.646 569.833 43.0843 574.165 44.5716L575.464 40.7884ZM565.183 36.6843C562.789 35.4306 560.678 33.5935 558.856 31.1243L555.638 33.4997C557.783 36.4065 560.344 38.6654 563.327 40.2277L565.183 36.6843ZM558.887 31.1676C557.262 28.8384 556.367 25.7196 556.367 21.656H552.367C552.367 26.2964 553.392 30.2816 555.606 33.4564L558.887 31.1676ZM556.367 21.656C556.367 17.9796 557.294 14.9021 559.081 12.3341L555.797 10.0499C553.487 13.3699 552.367 17.2684 552.367 21.656H556.367ZM559.081 12.3341C560.896 9.72427 563.404 7.71213 566.675 6.31029L565.099 2.63371C561.202 4.30387 558.077 6.77173 555.797 10.0499L559.081 12.3341ZM566.69 6.30357C570.045 4.83217 573.924 4.07199 578.367 4.07199V0.0719948C573.465 0.0719948 569.025 0.91182 565.083 2.64042L566.69 6.30357ZM578.367 4.07199C585.611 4.07199 591.101 5.78885 595.058 9.00091L597.579 5.89508C592.705 1.93914 586.227 0.0719948 578.367 0.0719948V4.07199ZM595.069 9.00973C599.081 12.219 601.379 16.6257 601.911 22.4149L605.894 22.0491C605.274 15.2943 602.517 9.84495 597.568 5.88626L595.069 9.00973ZM603.903 20.232H586.143V24.232H603.903V20.232ZM588.123 21.9492C587.753 19.3646 586.762 17.157 585.026 15.5037L582.267 18.4003C583.219 19.3069 583.892 20.6194 584.163 22.5148L588.123 21.9492ZM585.095 15.5727C583.361 13.7519 581.032 12.936 578.367 12.936V16.936C580.181 16.936 581.373 17.4641 582.198 18.3313L585.095 15.5727ZM578.367 12.936C576.077 12.936 574.022 13.5547 572.374 14.9422L574.951 18.0018C575.735 17.3413 576.816 16.936 578.367 16.936V12.936ZM572.334 14.9772C570.64 16.4832 569.935 18.6036 569.935 20.984H573.935C573.935 19.3964 574.382 18.5088 574.991 17.9668L572.334 14.9772ZM569.935 20.984C569.935 23.0534 570.613 24.9076 571.976 26.4407L574.966 23.7833C574.28 23.0124 573.935 22.1146 573.935 20.984H569.935ZM572.057 26.5262C573.342 27.8117 574.901 28.8402 576.697 29.6306L578.308 25.9694C576.905 25.3518 575.775 24.5882 574.885 23.6978L572.057 26.5262ZM576.697 29.6306C578.359 30.3618 580.713 31.2758 583.734 32.3688L585.095 28.6072C582.101 27.5242 579.846 26.6462 578.308 25.9694L576.697 29.6306ZM583.774 32.3826C588.066 33.8341 591.506 35.2655 594.127 36.6676L596.014 33.1404C593.131 31.5985 589.468 30.0859 585.056 28.5934L583.774 32.3826ZM594.16 36.6845C596.603 37.9344 598.735 39.7932 600.552 42.3136L603.797 39.9744C601.646 36.9908 599.043 34.6896 595.982 33.1235L594.16 36.6845ZM600.552 42.3136C602.226 44.6352 603.151 47.7736 603.151 51.896H607.151C607.151 47.1864 606.091 43.1568 603.797 39.9744L600.552 42.3136Z" fill="white"/>
</svg>
